<svg version="1" xmlns="http://www.w3.org/2000/svg" width="666.667" height="666.667" viewBox="0 0 500.000000 500.000000"><path d="M376.6 22.6c-.8.7-1.1 17-.9 52.5 0 28.3.2 51.9.2 52.5.1.7 16.1 1 53.3 1l53.3-.1V75.2c0-34.8-.3-53.2-1-53.3-.5 0-24.1-.1-52.4-.2-35.5-.1-51.8.1-52.5.9zM235.3 153l-.1 45.8 45.9.1H327v-91.8l-45.9.1h-45.8V153zM345 215.5V269h107V162H345v53.5zM217.4 247.9c-.2.2-.4 18.1-.4 39.8V327h39.5c21.7 0 39.5-.3 39.6-.8.4-2.9.3-77.5-.1-78.1-.5-.7-77.9-.9-78.6-.2zM331.4 346.5c0 30.9.3 45.5 1.1 45.6.5.1 21.1.3 45.8.3l44.7.2V301h-91.6v45.5zM114.8 308.8c-1.5.3-1.6 3.7-1.6 32.2v31.8h31.9c22.8-.1 31.9-.4 32-1.2 0-.6.1-14.9.2-31.9.1-19.8-.2-30.7-.8-30.8-2.8-.3-60.4-.4-61.7-.1zM208.4 413.2c-.5.7-.7 46.9-.5 65.3l.1 4 35 .1h35v-70.2h-34.6c-19 0-34.8.4-35 .8zM116.8 415.5s-.2 14.3-.3 31.7c-.2 22.5.1 31.8.9 32 .6.2 15 .4 32.1.4l30.9-.1.1-31.3c0-17.3-.2-31.7-.5-32.1-.3-.5-61.1-1.1-63.2-.6z"/></svg>